<?xml version="1.0" encoding="iso-8859-1"?>
<!-- Generator: Adobe Illustrator 19.0.0, SVG Export Plug-In . SVG Version: 6.00 Build 0)  -->
<svg version="1.1" id="Layer_1" xmlns="http://www.w3.org/2000/svg" xmlns:xlink="http://www.w3.org/1999/xlink" x="0px" y="0px"
	 viewBox="0 0 488.006 488.006" style="enable-background:new 0 0 488.006 488.006;" xml:space="preserve">
<g transform="translate(0 -1020.36)">
	<path style="fill:#FF883E;" d="M460.003,1252.374v40c-4.484,115.969-99.821,208.061-216.015,208
		c-116.195,0-211.678-92.025-215.985-208v-40"/>
	<path style="fill:#FCD116;" d="M460.003,1244.374c0,119.293-96.707,216-216,216s-216-96.707-216-216c0-119.293,96.707-216,216-216
		S460.003,1125.081,460.003,1244.374z"/>
	<g shape-rendering="auto" image-rendering="auto" color-rendering="auto" color-interpolation="sRGB">
		<g>
			<path style="fill:#3F3140;" d="M27.878,1244.266c-4.406,0.068-7.927,3.688-7.875,8.094v40c-0.002,0.107-0.002,0.213,0,0.32
				c4.464,120.199,103.581,215.686,224,215.686c120.41,0,219.354-95.518,224-215.686c0.002-0.107,0.002-0.213,0-0.32v-40
				c0.063-4.418-3.469-8.051-7.887-8.113c-4.418-0.063-8.051,3.469-8.113,7.887c-0.001,0.076-0.001,0.15,0,0.227v39.721
				c-4.321,111.756-96.035,200.34-208,200.279c-111.971,0-203.85-88.531-208-200.279v-39.721c0.052-4.418-3.488-8.043-7.906-8.094
				C28.024,1244.264,27.951,1244.264,27.878,1244.266z"/>
			<path style="fill:#3F3140;" d="M244.003,1020.36c-123.617,0-224,100.385-224,224c0,123.617,100.383,224,224,224
				s224-100.383,224-224C468.003,1120.745,367.62,1020.36,244.003,1020.36z M244.003,1036.36c114.97,0,208,93.031,208,208
				c0,114.971-93.03,208-208,208s-208-93.029-208-208C36.003,1129.391,129.033,1036.36,244.003,1036.36z"/>
			<path style="fill:#3F3140;" d="M224.003,1140.391c-13.39,1.152-28,12.381-28,27.623c0.009,8.35,4.242,15.121,8.906,20.127
				c10.938,11.732,33.031,37.438,33.031,37.438c3.138,3.678,8.796,3.752,12.031,0.16c0,0,23.554-26.295,34.969-39.375
				c4.338-4.971,7.052-11.41,7.063-18.314c0-15.244-12.713-27.623-28-27.623c-7.876,0-14.879,3.416-20,8.686
				C237.811,1142.885,231.249,1139.772,224.003,1140.391z"/>
		</g>
		<path style="fill:#FF883E;" d="M224.003,1156.391c6.797,0,12,5.189,12,11.623c0.062,4.418,3.695,7.949,8.113,7.887
			c4.33-0.061,7.826-3.557,7.887-7.887c0-6.436,5.203-11.623,12-11.623c6.797,0,12,5.189,12,11.623
			c-0.004,2.736-1.079,5.438-3.125,7.783c-9.304,10.66-23.049,25.986-28.875,32.5c-5.628-6.527-17.921-20.92-27.375-31.063
			c-3.061-3.283-4.622-6.328-4.625-9.219c0-6.436,5.203-11.623,12-11.623L224.003,1156.391z"/>
		<path style="fill:#3F3140;" d="M289.503,1205.172c-15.071,3.52-47.219,9.656-47.219,9.656c-4.728,0.896-7.6,5.732-6.125,10.314
			c0,0,10.635,32.791,16.062,48.844c2.071,6.129,6.147,11.58,11.969,15h0.032c12.886,7.525,29.61,2.734,37.031-10.279
			c4.046-7.094,4.044-15.01,1.656-22.252c8.215,0.656,13.889-5.535,17.625-11.465c3.585-5.688,4.152-13.254,2.625-20
			c-1.527-6.744-5.477-13.461-12.281-17.438c-7.076-4.135-14.897-3.846-21.375-2.344L289.503,1205.172z"/>
		<path style="fill:#FF883E;" d="M293.128,1220.735L293.128,1220.735c4.183-0.977,7.364-0.801,9.688,0.561
			c2.26,1.313,3.991,3.943,4.719,7.154c0.727,3.213,0.177,6.703-0.844,8.469c-1.504,2.605-2.756,3.643-5,4.344
			c-2.244,0.703-6.062,0.863-12.031-0.752c-4.26-1.174-8.665,1.326-9.84,5.586c-0.965,3.5,0.547,7.211,3.684,9.039
			c5.238,3.061,7.115,9.947,3.875,15.625c-0.011,0-0.021,0-0.032,0c-3.234,5.67-9.793,7.443-15.031,4.406
			c-2.223-1.313-3.973-3.49-4.938-6.344c-4.404-13.027-10.521-31.908-13.188-40.125c8.317-1.602,25.96-4.969,38.938-8
			L293.128,1220.735z"/>
		<path style="fill:#3F3140;" d="M198.503,1205.172c-6.478-1.504-14.299-1.791-21.375,2.344
			c-6.804,3.977-10.754,10.693-12.281,17.438c-1.527,6.746-0.914,13.871,2.625,20c4.619,8.912,11.301,10.797,17.625,11.465
			c-2.388,7.242-2.39,15.158,1.656,22.252c7.421,13.014,24.145,17.805,37.031,10.279h0.032c5.822-3.42,9.898-8.871,11.969-15
			c5.427-16.053,16.062-48.844,16.062-48.844c1.475-4.58-1.397-9.418-6.125-10.314c0,0-32.148-6.137-47.219-9.656L198.503,1205.172z
			"/>
		<path style="fill:#FF883E;" d="M194.878,1220.735c12.978,3.031,30.62,6.398,38.937,8c-2.666,8.217-8.783,27.098-13.188,40.125
			c-0.965,2.854-2.714,5.037-4.937,6.344c-5.238,3.037-11.797,1.264-15.031-4.406c-0.011,0-0.021,0-0.032,0
			c-3.24-5.678-1.363-12.564,3.875-15.625c3.817-2.225,5.108-7.125,2.883-10.941c-1.828-3.137-5.539-4.648-9.039-3.684
			c-5.969,1.621-9.787,1.455-12.031,0.752c-2.244-0.703-3.496-1.738-5-4.344c-1.021-1.766-1.571-5.256-0.844-8.469
			c0.727-3.211,2.459-5.836,4.719-7.154c2.324-1.359,5.505-1.535,9.688-0.561l0,0L194.878,1220.735z"/>
		<g>
			<path style="fill:#3F3140;" d="M250.909,1284.36l-13.781,8.156c0,0,1.926,3.277,3.781,7.406c1.855,4.129,3.11,9.5,3.063,10.125
				c-0.17,2.236-3.399,9.631-7,15.25c-3.601,5.619-7.125,9.969-7.125,9.969l12.438,10.031c0,0,4.029-4.934,8.156-11.375
				c4.127-6.439,8.832-13.881,9.5-22.656c0.545-7.164-2.176-12.873-4.438-17.906C253.242,1288.329,250.909,1284.36,250.909,1284.36z
				"/>
			<path style="fill:#3F3140;" d="M251.659,1302.547c-4.109,0.152-7.433,3.396-7.688,7.5c-0.17,2.236-3.399,9.631-7,15.25
				c-3.601,5.619-7.125,9.969-7.125,9.969c-2.954,3.285-2.685,8.344,0.601,11.299c3.286,2.955,8.345,2.686,11.299-0.602
				c0.191-0.211,0.371-0.434,0.538-0.666c0,0,4.029-4.934,8.156-11.375c4.127-6.439,8.832-13.881,9.5-22.656
				c0.401-4.4-2.841-8.293-7.242-8.693c-0.346-0.031-0.693-0.041-1.04-0.027V1302.547z"/>
		</g>
		<g>
			<path style="fill:#D8793E;" d="M223.88,1156.393c-6.739,0-11.813,5.195-11.813,11.594c0.003,2.883,1.536,5.904,4.594,9.188
				c9.459,10.146,21.787,24.545,27.406,31.063c0.672-0.752,2.45-2.783,3.314-3.75c-6.243-7.248-15.778-18.391-24.094-27.313
				c-3.059-3.283-4.59-6.305-4.594-9.188c0-5.279,3.539-9.521,8.531-10.938c-1.056-0.287-2.088-0.623-3.25-0.623
				c-0.053,0-0.107,0-0.16,0L223.88,1156.393z M264.037,1156.393c-6.79,0-12.062,5.164-12.062,11.594
				c0.001,0.053,0.001,0.107,0,0.16c0.008,0.805-0.105,1.605-0.336,2.375c-0.193,0.492-0.434,0.963-0.72,1.408
				c-0.27,0.469-0.586,0.908-0.944,1.313c-0.187,0.207-0.384,0.404-0.592,0.592c-0.622,0.566-1.328,1.031-2.094,1.377
				c0.183,0.104,0.37,0.199,0.56,0.287c0.236,0.098,0.476,0.182,0.72,0.256c0.269,0.068,0.541,0.121,0.816,0.16
				c2.402,0.361,4.838-0.385,6.624-2.031c0.208-0.188,0.405-0.385,0.592-0.592c0.358-0.404,0.674-0.844,0.944-1.313
				c0.286-0.445,0.527-0.916,0.72-1.408c0.231-0.77,0.344-1.57,0.336-2.375c0.001-0.053,0.001-0.107,0-0.16
				c0-5.311,3.675-9.58,8.75-10.969c-1.072-0.287-2.122-0.623-3.312-0.623L264.037,1156.393z"/>
			<path style="fill:#D8793E;" d="M189.347,1220.151c-1.609,0.092-2.995,0.476-4.156,1.156c-2.26,1.32-3.991,3.945-4.719,7.156
				c-0.728,3.213-0.177,6.702,0.844,8.469c1.504,2.606,2.756,3.64,5,4.344c1.363,0.428,3.565,0.468,6.219,0.219
				c-1.886-0.978-3.624-2.322-4.813-4.406c-3.298-5.781-1.311-12.847,4.031-15.969c0.517-0.299,1.197-0.371,1.844-0.5
				C192.078,1220.347,190.583,1220.08,189.347,1220.151z M206.284,1240.901c-0.676,0.006-1.348,0.101-2,0.281
				c3.891,2.094,5.348,6.946,3.254,10.837c-0.702,1.305-1.753,2.389-3.035,3.132c-5.238,3.061-7.115,9.947-3.875,15.625
				c0.01,0,0.021,0,0.031,0c1.59,2.789,3.979,4.611,6.625,5.406c0.144,0.04,0.293,0.06,0.438,0.094
				c1.085,0.276,2.223,0.33,3.344,0.25c0.358-0.029,0.706-0.092,1.062-0.156c0.342-0.061,0.661-0.248,1-0.344
				c-2.394-0.915-4.57-2.561-6.031-5.125c-3.296-5.781-1.439-12.816,3.906-15.938c3.433-2.587,4.12-7.467,1.533-10.9
				c-1.478-1.962-3.796-3.111-6.252-3.1V1240.901z"/>
			<path style="fill:#D8793E;" d="M298.661,1219.987c-1.626-0.16-3.488,0.16-5.594,0.592c-13.061,3.049-31.03,6.459-39.187,8.031
				c2.621,8.078,8.915,27.182,13.344,40.281c0.976,2.896,2.664,5.164,4.938,6.5c2.858,1.668,6.086,1.822,9,0.816
				c-0.8-0.24-1.618-0.367-2.374-0.816c-2.274-1.344-3.958-3.605-4.938-6.5c-4.429-13.102-10.723-32.203-13.344-40.281
				c8.157-1.568,26.126-4.982,39.187-8.031c0.288,0,0.496,0,0.784-0.16c-0.624-0.16-1.12-0.447-1.813-0.496L298.661,1219.987z"/>
		</g>
	</g>
	<g>
		<path style="fill:#3F3140;" d="M420.003,1244.374c-0.001,4.418-3.582,7.998-7.999,7.998s-7.999-3.58-7.999-7.998
			c0-4.418,3.581-8,7.999-8c0,0,0,0,0.001,0C416.421,1236.374,420.003,1239.956,420.003,1244.374L420.003,1244.374z"/>
		<path style="fill:#3F3140;" d="M84.002,1244.374c-0.001,4.418-3.582,7.998-7.999,7.998s-7.999-3.58-7.999-7.998
			c0-4.418,3.581-8,7.999-8c0,0,0,0,0.001,0C80.42,1236.374,84.002,1239.956,84.002,1244.374L84.002,1244.374z"/>
		<path style="fill:#3F3140;" d="M252.002,1076.374c-0.001,4.418-3.582,7.998-7.999,7.998s-7.999-3.58-7.999-7.998
			c0-4.418,3.581-8,7.999-8c0,0,0,0,0.001,0C248.421,1068.374,252.002,1071.956,252.002,1076.374L252.002,1076.374z"/>
		<path style="fill:#3F3140;" d="M185.424,1090.245c0,4.418-3.581,8-7.999,8c0,0,0,0-0.001,0c-4.418,0-7.999-3.582-7.999-8l0,0
			c0.001-4.418,3.582-7.998,7.999-7.998S185.424,1085.827,185.424,1090.245z"/>
		<path style="fill:#3F3140;" d="M96.813,1180.38c0,4.418-3.581,8-7.999,8c0,0,0,0-0.001,0c-4.418,0-7.999-3.582-7.999-8l0,0
			c0.001-4.418,3.582-7.998,7.999-7.998S96.813,1175.962,96.813,1180.38z"/>
		<path style="fill:#3F3140;" d="M134.411,1124.383c0,4.418-3.581,8-7.999,8c0,0,0,0-0.001,0c-4.418,0-7.999-3.582-7.999-8l0,0
			c0-4.418,3.581-8,7.999-8c0,0,0,0,0.001,0C130.829,1116.383,134.411,1119.965,134.411,1124.383L134.411,1124.383z"/>
		<g transform="scale(-1 1)">
			<path style="fill:#3F3140;" d="M-302.736,1090.245c0,4.418-3.581,8-7.999,8c0,0,0,0-0.001,0c-4.418,0-7.999-3.582-7.999-8l0,0
				c0.001-4.418,3.582-7.998,7.999-7.998S-302.737,1085.827-302.736,1090.245z"/>
			<path style="fill:#3F3140;" d="M-391.347,1180.38c0,4.418-3.581,8-7.999,8c0,0,0,0-0.001,0c-4.418,0-7.999-3.582-7.999-8l0,0
				c0.001-4.418,3.582-7.998,7.999-7.998S-391.348,1175.962-391.347,1180.38z"/>
			<path style="fill:#3F3140;" d="M-353.75,1124.383c0,4.418-3.581,8-7.999,8c0,0,0,0-0.001,0c-4.418,0-7.999-3.582-7.999-8l0,0
				c0-4.418,3.581-8,7.999-8c0,0,0,0,0.001,0C-357.331,1116.383-353.75,1119.965-353.75,1124.383L-353.75,1124.383z"/>
		</g>
		<g transform="scale(1 -1)">
			<path style="fill:#3F3140;" d="M252.002-1412.376c0,4.418-3.581,8-7.999,8c0,0,0,0-0.001,0c-4.418,0-7.999-3.582-7.999-8l0,0
				c0-4.418,3.581-8,7.999-8c0,0,0,0,0.001,0C248.421-1420.376,252.002-1416.794,252.002-1412.376L252.002-1412.376z"/>
			<path style="fill:#3F3140;" d="M185.424-1398.506c0,4.418-3.581,8-7.999,8c0,0,0,0-0.001,0c-4.418,0-7.999-3.582-7.999-8l0,0
				c0.001-4.418,3.582-7.998,7.999-7.998S185.424-1402.924,185.424-1398.506z"/>
			<path style="fill:#3F3140;" d="M96.813-1308.37c-0.001,4.418-3.582,7.998-7.999,7.998s-7.999-3.58-7.999-7.998
				c0-4.418,3.581-8,7.999-8c0,0,0,0,0.001,0C93.232-1316.37,96.813-1312.788,96.813-1308.37L96.813-1308.37z"/>
			<path style="fill:#3F3140;" d="M134.411-1364.366c0,4.418-3.581,8-7.999,8c0,0,0,0-0.001,0c-4.418,0-7.999-3.582-7.999-8l0,0
				c0-4.418,3.581-8,7.999-8c0,0,0,0,0.001,0C130.829-1372.366,134.411-1368.784,134.411-1364.366L134.411-1364.366z"/>
		</g>
		<g transform="scale(-1 -1)">
			<path style="fill:#3F3140;" d="M-302.736-1398.506c0,4.418-3.581,8-7.999,8c0,0,0,0-0.001,0c-4.418,0-7.999-3.582-7.999-8l0,0
				c0.001-4.418,3.582-7.998,7.999-7.998S-302.737-1402.924-302.736-1398.506z"/>
			<path style="fill:#3F3140;" d="M-391.347-1308.37c-0.001,4.418-3.582,7.998-7.999,7.998s-7.999-3.58-7.999-7.998
				c0-4.418,3.581-8,7.999-8c0,0,0,0,0.001,0C-394.929-1316.37-391.347-1312.788-391.347-1308.37L-391.347-1308.37z"/>
			<path style="fill:#3F3140;" d="M-353.75-1364.366c0,4.418-3.581,8-7.999,8c0,0,0,0-0.001,0c-4.418,0-7.999-3.582-7.999-8l0,0
				c0-4.418,3.581-8,7.999-8c0,0,0,0,0.001,0C-357.331-1372.366-353.75-1368.784-353.75-1364.366L-353.75-1364.366z"/>
		</g>
	</g>
	<g shape-rendering="auto" image-rendering="auto" color-rendering="auto" color-interpolation="sRGB">
		<path style="fill:#D6B31E;" d="M243.942,1036.331c-114.97,0-208,93.123-208,208.094c0,114.969,93.03,208,208,208
			c1.816,0,3.571-0.24,5.376-0.287c-112.456-2.873-202.626-94.563-202.626-207.719c0-113.154,90.17-204.936,202.626-207.813
			c-1.805,0-3.56-0.272-5.376-0.272L243.942,1036.331z"/>
		<path style="fill:#D8793E;" d="M46.568,1350.141c27.63,82.813,105.717,142.139,197.374,142.189c1.811,0,3.576-0.176,5.376-0.225
			c-71.453-1.861-134.086-39.635-170.157-96.281c-12.651-13.77-23.675-29.08-32.594-45.686L46.568,1350.141z M441.349,1350.301
			c-37.032,68.768-108.986,115.906-192.03,117.875c1.795,0,3.568,0.191,5.374,0.191c65.134,0,123.763-27.904,164.718-72.344
			c9.046-14.166,16.49-29.475,21.938-45.721L441.349,1350.301z"/>
	</g>
</g>
<g>
</g>
<g>
</g>
<g>
</g>
<g>
</g>
<g>
</g>
<g>
</g>
<g>
</g>
<g>
</g>
<g>
</g>
<g>
</g>
<g>
</g>
<g>
</g>
<g>
</g>
<g>
</g>
<g>
</g>
</svg>
